{
	"asset": {
		"generator": "VISUALIZEGLTF",
		"version" : "2.0"
	},
	"extensionsUsed": [ "KHR_lights_punctual" ],
	"scenes": [
		{
			"name": "Default",
			"nodes": [
				0]
		}
	],
	"nodes": [
		{
			"children": [
				1, 10, 11, 12, 13, 14, 15, 16
			]
			,"name": ""		}
,
		{
			"children": [
				2
			]
			,"matrix": [
				1,					0,					0,					0,
				0,					1,					0,					0,
				0,					0,					1,					0,
				0,					0.1288985,					0,					1
			]
			,"name": "Wheel Assm"		}
,
		{
			"children": [
				3, 4, 5, 6, 7, 8, 9
			]
			,"name": "Root"		}
,
		{
			"mesh": 0
			,"name": "satin finish aluminum"		}
,
		{
			"mesh": 1
			,"name": "carbon steel"		}
,
		{
			"mesh": 2
			,"name": "polished brass"		}
,
		{
			"mesh": 3
			,"name": "glossy rubber"		}
,
		{
			"mesh": 4
			,"name": "beige low gloss plastic"		}
,
		{
			"mesh": 5
			,"name": "blue high gloss plastic"		}
,
		{
			"mesh": 6
			,"name": "color"		}
,
		{
			"matrix": [
				0.02353329,					-0.4201142,					0.9071661,					0,
				0.991818,					-0.1040762,					-0.07392763,					0,
				0.1254725,					0.9014834,					0.4142275,					0,
				0.1194169,					0.892061,					0.3808987,					1
			]
			,"camera": 0
			,"name": "SOLIDWORKS Viewport"		}
,
		{
			"matrix": [
				0.7071068,					0,					-0.7071068,					0,
				-0.1622216,					0.9733286,					-0.1622216,					0,
				0.6882472,					0.2294159,					0.6882472,					0,
				4.445094,					1.981699,					4.445094,					1
			]
			,"camera": 1
			,"name": "Default Camera"		}
,
		{
			"matrix": [
				0,					0,					-0.9999999,					0,
				-0.7071068,					0.7071068,					0,					0,
				0.7071068,					0.7071068,					0,					0,
				7.071068,					7.071068,					0,					1
			]
			,"extensions" : {
				"KHR_lights_punctual" : {
					"light" : 0
				}
			}
			,"name": "Directional1"		}
,
		{
			"matrix": [
				-0.9019192,					0,					0.4319047,					0,
				0.2645487,					0.790458,					0.5524403,					0,
				-0.3414025,					0.6125164,					-0.7129292,					0,
				-3.414026,					6.125165,					-7.12929,					1
			]
			,"extensions" : {
				"KHR_lights_punctual" : {
					"light" : 1
				}
			}
			,"name": "Directional2"		}
,
		{
			"matrix": [
				-0.1920117,					0,					0.9813927,					0,
				0.3346118,					0.9400793,					0.06546756,					0,
				-0.9225869,					0.3409561,					-0.1805062,					0,
				-9.225868,					3.40956,					-1.805061,					1
			]
			,"extensions" : {
				"KHR_lights_punctual" : {
					"light" : 2
				}
			}
			,"name": "Directional3"		}
,
		{
			"name": "3 Point Faded"		}
,
		{
			"name": "3 Point Faded Backplate"		}
	],
	"cameras": [
		{
			"type": "perspective",
			"perspective" : {
				"aspectRatio": 1.25,
				"yfov" : 0.3215369,
				"zfar" : 100,
				"znear" : 0.01
			}
		}
,
		{
			"type": "perspective",
			"perspective" : {
				"aspectRatio": 1.777778,
				"yfov" : 0.2617994,
				"zfar" : 100,
				"znear" : 0.01
			}
		}
	],
	"extensions": {
		"KHR_lights_punctual" : {
			"lights": [
		{
			"name": "Directional1[1]",
			"color": [
					0.5773503, 0.5773503, 0.5773503
				],
			"intensity": 0.5773503,
			"type": "directional"
		}
,
		{
			"name": "Directional2[1]",
			"color": [
					0.5773503, 0.5773503, 0.5773503
				],
			"intensity": 0.5773503,
			"type": "directional"
		}
,
		{
			"name": "Directional3[1]",
			"color": [
					0.5773503, 0.5773503, 0.5773503
				],
			"intensity": 0.5773503,
			"type": "directional"
		}

			]
		}
	},
	"meshes" : [
		{
			"primitives" : [
				{
					"attributes" : {
					"POSITION" : 1
					,"NORMAL" : 2
					,"TEXCOORD_0" : 3
					},
					"indices" : 0,
					"mode": 4,
					"material" : 0
				}
			]
		},
		{
			"primitives" : [
				{
					"attributes" : {
					"POSITION" : 5
					,"NORMAL" : 6
					,"TEXCOORD_0" : 7
					},
					"indices" : 4,
					"mode": 4,
					"material" : 1
				},
				{
					"attributes" : {
					"POSITION" : 9
					,"NORMAL" : 10
					,"TEXCOORD_0" : 11
					},
					"indices" : 8,
					"mode": 4,
					"material" : 1
				},
				{
					"attributes" : {
					"POSITION" : 13
					,"NORMAL" : 14
					,"TEXCOORD_0" : 15
					},
					"indices" : 12,
					"mode": 4,
					"material" : 1
				},
				{
					"attributes" : {
					"POSITION" : 17
					,"NORMAL" : 18
					,"TEXCOORD_0" : 19
					},
					"indices" : 16,
					"mode": 4,
					"material" : 1
				}
			]
		},
		{
			"primitives" : [
				{
					"attributes" : {
					"POSITION" : 21
					,"NORMAL" : 22
					,"TEXCOORD_0" : 23
					},
					"indices" : 20,
					"mode": 4,
					"material" : 2
				},
				{
					"attributes" : {
					"POSITION" : 25
					,"NORMAL" : 26
					,"TEXCOORD_0" : 27
					},
					"indices" : 24,
					"mode": 4,
					"material" : 2
				},
				{
					"attributes" : {
					"POSITION" : 29
					,"NORMAL" : 30
					,"TEXCOORD_0" : 31
					},
					"indices" : 28,
					"mode": 4,
					"material" : 2
				}
			]
		},
		{
			"primitives" : [
				{
					"attributes" : {
					"POSITION" : 33
					,"NORMAL" : 34
					,"TEXCOORD_0" : 35
					},
					"indices" : 32,
					"mode": 4,
					"material" : 3
				}
			]
		},
		{
			"primitives" : [
				{
					"attributes" : {
					"POSITION" : 37
					,"NORMAL" : 38
					,"TEXCOORD_0" : 39
					},
					"indices" : 36,
					"mode": 4,
					"material" : 4
				}
			]
		},
		{
			"primitives" : [
				{
					"attributes" : {
					"POSITION" : 41
					,"NORMAL" : 42
					,"TEXCOORD_0" : 43
					},
					"indices" : 40,
					"mode": 4,
					"material" : 5
				}
			]
		},
		{
			"primitives" : [
				{
					"attributes" : {
					"POSITION" : 45
					,"NORMAL" : 46
					,"TEXCOORD_0" : 47
					},
					"indices" : 44,
					"mode": 4,
					"material" : 6
				}
			]
		}
	],
	"accessors" : [
			{
				"bufferView": 3
				,"byteOffset" : 0
				,"componentType" : 5125
				,"count" : 4668
				,"type" : "SCALAR"
			},
			{
				"bufferView": 0
				,"byteOffset" : 0
				,"componentType" : 5126
				,"count" : 2328
				,"type" : "VEC3"
								,"min": [-0.0381000005,-0.0381000005,-0.0126999998]
								,"max": [0.0381000005,0.0381000005,0.0126999998]
			},
			{
				"bufferView": 1
				,"byteOffset" : 0
				,"componentType" : 5126
				,"count" : 2328
				,"type" : "VEC3"
			},
			{
				"bufferView": 2
				,"byteOffset" : 0
				,"componentType" : 5126
				,"count" : 2328
				,"type" : "VEC2"
			},
			{
				"bufferView": 7
				,"byteOffset" : 0
				,"componentType" : 5125
				,"count" : 151731
				,"type" : "SCALAR"
			},
			{
				"bufferView": 4
				,"byteOffset" : 0
				,"componentType" : 5126
				,"count" : 65533
				,"type" : "VEC3"
								,"min": [-0.0158749968,-0.0354176164,-0.0285750013]
								,"max": [0.0174571052,0.012825002,0.12286488]
			},
			{
				"bufferView": 5
				,"byteOffset" : 0
				,"componentType" : 5126
				,"count" : 65533
				,"type" : "VEC3"
			},
			{
				"bufferView": 6
				,"byteOffset" : 0
				,"componentType" : 5126
				,"count" : 65533
				,"type" : "VEC2"
			},
			{
				"bufferView": 7
				,"byteOffset" : 606924
				,"componentType" : 5125
				,"count" : 140601
				,"type" : "SCALAR"
			},
			{
				"bufferView": 4
				,"byteOffset" : 786396
				,"componentType" : 5126
				,"count" : 65533
				,"type" : "VEC3"
								,"min": [-0.0174571052,-0.0354176164,-0.0285750013]
								,"max": [0.0174571052,0.0354176164,0.00317499996]
			},
			{
				"bufferView": 5
				,"byteOffset" : 786396
				,"componentType" : 5126
				,"count" : 65533
				,"type" : "VEC3"
			},
			{
				"bufferView": 6
				,"byteOffset" : 524264
				,"componentType" : 5126
				,"count" : 65533
				,"type" : "VEC2"
			},
			{
				"bufferView": 7
				,"byteOffset" : 1169328
				,"componentType" : 5125
				,"count" : 150615
				,"type" : "SCALAR"
			},
			{
				"bufferView": 4
				,"byteOffset" : 1572792
				,"componentType" : 5126
				,"count" : 65533
				,"type" : "VEC3"
								,"min": [-0.0174571052,-0.00880806427,-0.0285750013]
								,"max": [0.00880390033,0.0354176164,0.104238868]
			},
			{
				"bufferView": 5
				,"byteOffset" : 1572792
				,"componentType" : 5126
				,"count" : 65533
				,"type" : "VEC3"
			},
			{
				"bufferView": 6
				,"byteOffset" : 1048528
				,"componentType" : 5126
				,"count" : 65533
				,"type" : "VEC2"
			},
			{
				"bufferView": 7
				,"byteOffset" : 1771788
				,"componentType" : 5125
				,"count" : 12699
				,"type" : "SCALAR"
			},
			{
				"bufferView": 4
				,"byteOffset" : 2359188
				,"componentType" : 5126
				,"count" : 5755
				,"type" : "VEC3"
								,"min": [-0.00854161754,-0.00856477581,0.00317500159]
								,"max": [0.0085725002,0.00856477581,0.104774997]
			},
			{
				"bufferView": 5
				,"byteOffset" : 2359188
				,"componentType" : 5126
				,"count" : 5755
				,"type" : "VEC3"
			},
			{
				"bufferView": 6
				,"byteOffset" : 1572792
				,"componentType" : 5126
				,"count" : 5755
				,"type" : "VEC2"
			},
			{
				"bufferView": 11
				,"byteOffset" : 0
				,"componentType" : 5125
				,"count" : 152847
				,"type" : "SCALAR"
			},
			{
				"bufferView": 8
				,"byteOffset" : 0
				,"componentType" : 5126
				,"count" : 65533
				,"type" : "VEC3"
								,"min": [-0.00635085255,-0.0493267998,-0.00549999997]
								,"max": [0.0500888005,0.038251929,0.221119255]
			},
			{
				"bufferView": 9
				,"byteOffset" : 0
				,"componentType" : 5126
				,"count" : 65533
				,"type" : "VEC3"
			},
			{
				"bufferView": 10
				,"byteOffset" : 0
				,"componentType" : 5126
				,"count" : 65533
				,"type" : "VEC2"
			},
			{
				"bufferView": 11
				,"byteOffset" : 611388
				,"componentType" : 5125
				,"count" : 152415
				,"type" : "SCALAR"
			},
			{
				"bufferView": 8
				,"byteOffset" : 786396
				,"componentType" : 5126
				,"count" : 65533
				,"type" : "VEC3"
								,"min": [-0.0419500023,-0.0500888005,-0.00549999997]
								,"max": [0.038251929,0.0382506251,0.00549999997]
			},
			{
				"bufferView": 9
				,"byteOffset" : 786396
				,"componentType" : 5126
				,"count" : 65533
				,"type" : "VEC3"
			},
			{
				"bufferView": 10
				,"byteOffset" : 524264
				,"componentType" : 5126
				,"count" : 65533
				,"type" : "VEC2"
			},
			{
				"bufferView": 11
				,"byteOffset" : 1221048
				,"componentType" : 5125
				,"count" : 93822
				,"type" : "SCALAR"
			},
			{
				"bufferView": 8
				,"byteOffset" : 1572792
				,"componentType" : 5126
				,"count" : 40382
				,"type" : "VEC3"
								,"min": [-0.0500888005,-0.00635085255,-0.00549999997]
								,"max": [0.00635085255,0.0500888005,0.00549999997]
			},
			{
				"bufferView": 9
				,"byteOffset" : 1572792
				,"componentType" : 5126
				,"count" : 40382
				,"type" : "VEC3"
			},
			{
				"bufferView": 10
				,"byteOffset" : 1048528
				,"componentType" : 5126
				,"count" : 40382
				,"type" : "VEC2"
			},
			{
				"bufferView": 15
				,"byteOffset" : 0
				,"componentType" : 5125
				,"count" : 5616
				,"type" : "SCALAR"
			},
			{
				"bufferView": 12
				,"byteOffset" : 0
				,"componentType" : 5126
				,"count" : 2056
				,"type" : "VEC3"
								,"min": [-0.0698499978,-0.0698499978,-0.00317499996]
								,"max": [0.0698499978,0.0698499978,0.197306752]
			},
			{
				"bufferView": 13
				,"byteOffset" : 0
				,"componentType" : 5126
				,"count" : 2056
				,"type" : "VEC3"
			},
			{
				"bufferView": 14
				,"byteOffset" : 0
				,"componentType" : 5126
				,"count" : 2056
				,"type" : "VEC2"
			},
			{
				"bufferView": 19
				,"byteOffset" : 0
				,"componentType" : 5125
				,"count" : 61818
				,"type" : "SCALAR"
			},
			{
				"bufferView": 16
				,"byteOffset" : 0
				,"componentType" : 5126
				,"count" : 26074
				,"type" : "VEC3"
								,"min": [-0.0111149997,-0.0128344968,0.112506755]
								,"max": [0.0111149997,0.0128344968,0.167506754]
			},
			{
				"bufferView": 17
				,"byteOffset" : 0
				,"componentType" : 5126
				,"count" : 26074
				,"type" : "VEC3"
			},
			{
				"bufferView": 18
				,"byteOffset" : 0
				,"componentType" : 5126
				,"count" : 26074
				,"type" : "VEC2"
			},
			{
				"bufferView": 23
				,"byteOffset" : 0
				,"componentType" : 5125
				,"count" : 32190
				,"type" : "SCALAR"
			},
			{
				"bufferView": 20
				,"byteOffset" : 0
				,"componentType" : 5126
				,"count" : 15340
				,"type" : "VEC3"
								,"min": [-0.0917548835,-0.0917548835,-0.022225]
								,"max": [0.0917548835,0.0917548835,0.0285749994]
			},
			{
				"bufferView": 21
				,"byteOffset" : 0
				,"componentType" : 5126
				,"count" : 15340
				,"type" : "VEC3"
			},
			{
				"bufferView": 22
				,"byteOffset" : 0
				,"componentType" : 5126
				,"count" : 15340
				,"type" : "VEC2"
			},
			{
				"bufferView": 27
				,"byteOffset" : 0
				,"componentType" : 5125
				,"count" : 38352
				,"type" : "SCALAR"
			},
			{
				"bufferView": 24
				,"byteOffset" : 0
				,"componentType" : 5126
				,"count" : 18960
				,"type" : "VEC3"
								,"min": [-0.0813393071,-0.0813393071,-0.022225]
								,"max": [0.0813393071,0.0813393071,0.0285749994]
			},
			{
				"bufferView": 25
				,"byteOffset" : 0
				,"componentType" : 5126
				,"count" : 18960
				,"type" : "VEC3"
			},
			{
				"bufferView": 26
				,"byteOffset" : 0
				,"componentType" : 5126
				,"count" : 18960
				,"type" : "VEC2"
			}
	],
	"materials": [
			{
				"name": "satin finish aluminum",
				"emissiveFactor": [
					0, 0, 0
				]
				,"pbrMetallicRoughness": {
					"baseColorFactor": [
						0.7299189, 0.8122415, 1, 1
					]
					,"metallicFactor": 1
					,"roughnessFactor": 0.3304235
				}
				,"alphaMode": "OPAQUE"
				,"doubleSided": true
			},
			{
				"name": "carbon steel",
				"emissiveFactor": [
					0, 0, 0
				]
				,"pbrMetallicRoughness": {
					"baseColorFactor": [
						0.5731589, 0.5417984, 0.5113978, 1
					]
					,"metallicFactor": 1
					,"roughnessFactor": 0.01018863
				}
				,"alphaMode": "OPAQUE"
				,"doubleSided": true
			},
			{
				"name": "polished brass",
				"emissiveFactor": [
					0, 0, 0
				]
				,"pbrMetallicRoughness": {
					"baseColorFactor": [
						0.659224, 0.4098258, 0.01112608, 1
					]
					,"metallicFactor": 1
					,"roughnessFactor": 0.01018863
				}
				,"alphaMode": "OPAQUE"
				,"doubleSided": true
			},
			{
				"name": "glossy rubber",
				"emissiveFactor": [
					0, 0, 0
				]
				,"pbrMetallicRoughness": {
					"baseColorFactor": [
						0.2291316, 0.2291316, 1, 1
					]
					,"metallicFactor": 0.05315915
					,"roughnessFactor": 0.3788893
				}
				,"alphaMode": "OPAQUE"
				,"doubleSided": true
			},
			{
				"name": "beige low gloss plastic",
				"emissiveFactor": [
					0, 0, 0
				]
				,"pbrMetallicRoughness": {
					"baseColorFactor": [
						0.3958865, 0.3596611, 0.3398094, 1
					]
					,"metallicFactor": 0
					,"roughnessFactor": 0.6440087
				}
				,"alphaMode": "OPAQUE"
				,"doubleSided": true
			},
			{
				"name": "blue high gloss plastic",
				"emissiveFactor": [
					0, 0, 0
				]
				,"pbrMetallicRoughness": {
					"baseColorFactor": [
						3.777835E-05, 0.06233679, 0.9434472, 1
					]
					,"metallicFactor": 0.2765333
					,"roughnessFactor": 0.01336535
				}
				,"alphaMode": "OPAQUE"
				,"doubleSided": true
			},
			{
				"name": "color",
				"emissiveFactor": [
					0, 0, 0
				]
				,"pbrMetallicRoughness": {
					"baseColorFactor": [
						0.9760634, 0.9845559, 0.7618234, 1
					]
					,"metallicFactor": 0.0747025
					,"roughnessFactor": 0.01336535
				}
				,"alphaMode": "OPAQUE"
				,"doubleSided": true
			}
	],
	"bufferViews" : [
			{
				"buffer": 0
				,"byteOffset" : 0
				,"byteLength" : 27936
				,"byteStride" : 12
				,"target" : 34962
			},
			{
				"buffer": 0
				,"byteOffset" : 27936
				,"byteLength" : 27936
				,"byteStride" : 12
				,"target" : 34962
			},
			{
				"buffer": 0
				,"byteOffset" : 55872
				,"byteLength" : 18624
				,"byteStride" : 8
				,"target" : 34962
			},
			{
				"buffer": 0
				,"byteOffset" : 74496
				,"byteLength" : 18672
				,"target" : 34963
			},
			{
				"buffer": 1
				,"byteOffset" : 0
				,"byteLength" : 2428248
				,"byteStride" : 12
				,"target" : 34962
			},
			{
				"buffer": 1
				,"byteOffset" : 2428248
				,"byteLength" : 2428248
				,"byteStride" : 12
				,"target" : 34962
			},
			{
				"buffer": 1
				,"byteOffset" : 4856496
				,"byteLength" : 1618832
				,"byteStride" : 8
				,"target" : 34962
			},
			{
				"buffer": 1
				,"byteOffset" : 6475328
				,"byteLength" : 1822584
				,"target" : 34963
			},
			{
				"buffer": 2
				,"byteOffset" : 0
				,"byteLength" : 2057376
				,"byteStride" : 12
				,"target" : 34962
			},
			{
				"buffer": 2
				,"byteOffset" : 2057376
				,"byteLength" : 2057376
				,"byteStride" : 12
				,"target" : 34962
			},
			{
				"buffer": 2
				,"byteOffset" : 4114752
				,"byteLength" : 1371584
				,"byteStride" : 8
				,"target" : 34962
			},
			{
				"buffer": 2
				,"byteOffset" : 5486336
				,"byteLength" : 1596336
				,"target" : 34963
			},
			{
				"buffer": 3
				,"byteOffset" : 0
				,"byteLength" : 24672
				,"byteStride" : 12
				,"target" : 34962
			},
			{
				"buffer": 3
				,"byteOffset" : 24672
				,"byteLength" : 24672
				,"byteStride" : 12
				,"target" : 34962
			},
			{
				"buffer": 3
				,"byteOffset" : 49344
				,"byteLength" : 16448
				,"byteStride" : 8
				,"target" : 34962
			},
			{
				"buffer": 3
				,"byteOffset" : 65792
				,"byteLength" : 22464
				,"target" : 34963
			},
			{
				"buffer": 4
				,"byteOffset" : 0
				,"byteLength" : 312888
				,"byteStride" : 12
				,"target" : 34962
			},
			{
				"buffer": 4
				,"byteOffset" : 312888
				,"byteLength" : 312888
				,"byteStride" : 12
				,"target" : 34962
			},
			{
				"buffer": 4
				,"byteOffset" : 625776
				,"byteLength" : 208592
				,"byteStride" : 8
				,"target" : 34962
			},
			{
				"buffer": 4
				,"byteOffset" : 834368
				,"byteLength" : 247272
				,"target" : 34963
			},
			{
				"buffer": 5
				,"byteOffset" : 0
				,"byteLength" : 184080
				,"byteStride" : 12
				,"target" : 34962
			},
			{
				"buffer": 5
				,"byteOffset" : 184080
				,"byteLength" : 184080
				,"byteStride" : 12
				,"target" : 34962
			},
			{
				"buffer": 5
				,"byteOffset" : 368160
				,"byteLength" : 122720
				,"byteStride" : 8
				,"target" : 34962
			},
			{
				"buffer": 5
				,"byteOffset" : 490880
				,"byteLength" : 128760
				,"target" : 34963
			},
			{
				"buffer": 6
				,"byteOffset" : 0
				,"byteLength" : 227520
				,"byteStride" : 12
				,"target" : 34962
			},
			{
				"buffer": 6
				,"byteOffset" : 227520
				,"byteLength" : 227520
				,"byteStride" : 12
				,"target" : 34962
			},
			{
				"buffer": 6
				,"byteOffset" : 455040
				,"byteLength" : 151680
				,"byteStride" : 8
				,"target" : 34962
			},
			{
				"buffer": 6
				,"byteOffset" : 606720
				,"byteLength" : 153408
				,"target" : 34963
			}
	],
	"buffers" : [
			{
				"byteLength": 93168
				,"uri" : "wheel_0001.bin"
			},
			{
				"byteLength": 8297912
				,"uri" : "wheel_0002.bin"
			},
			{
				"byteLength": 7082672
				,"uri" : "wheel_0003.bin"
			},
			{
				"byteLength": 88256
				,"uri" : "wheel_0004.bin"
			},
			{
				"byteLength": 1081640
				,"uri" : "wheel_0005.bin"
			},
			{
				"byteLength": 619640
				,"uri" : "wheel_0006.bin"
			},
			{
				"byteLength": 760128
				,"uri" : "wheel_0007.bin"
			}
	]
}
