{
	"asset": {
		"generator": "VISUALIZEGLTF",
		"version" : "2.0"
	},
	"scenes": [
		{
			"name": "Default",
			"nodes": [
				0]
		}
	],
	"nodes": [
		{
			"children": [
				1, 4, 5, 6, 7
			]
			,"name": ""		}
,
		{
			"children": [
				2
			]
			,"matrix": [
				1,					0,					0,					0,
				0,					1,					0,					0,
				0,					0,					1,					0,
				0,					-0.03481553,					0,					1
			]
			,"name": "kfupm"		}
,
		{
			"children": [
				3
			]
			,"name": "Root"		}
,
		{
			"mesh": 0
			,"name": "color"		}
,
		{
			"matrix": [
				0.6516796,					-1.862695E-09,					-0.7584944,					0,
				-0.01592711,					0.9997796,					-0.01368418,					0,
				0.7583271,					0.02099833,					0.6515359,					0,
				4.166558,					0.5819868,					3.111198,					1
			]
			,"camera": 0
			,"name": "SOLIDWORKS Viewport"		}
,
		{
			"matrix": [
				0.7071068,					0,					-0.7071068,					0,
				-0.1622216,					0.9733286,					-0.1622216,					0,
				0.6882472,					0.2294159,					0.6882472,					0,
				4.445094,					1.981699,					4.445094,					1
			]
			,"camera": 1
			,"name": "Default Camera"		}
,
		{
			"name": "High Contrast Ramp"		}
,
		{
			"name": "Studio Soft Grey 12"		}
	],
	"cameras": [
		{
			"type": "perspective",
			"perspective" : {
				"aspectRatio": 1.294118,
				"yfov" : 0.3215369,
				"zfar" : 100,
				"znear" : 0.01
			}
		}
,
		{
			"type": "perspective",
			"perspective" : {
				"aspectRatio": 1.777778,
				"yfov" : 0.2617994,
				"zfar" : 100,
				"znear" : 0.01
			}
		}
	],
	"meshes" : [
		{
			"primitives" : [
				{
					"attributes" : {
					"POSITION" : 1
					,"NORMAL" : 2
					,"TEXCOORD_0" : 3
					},
					"indices" : 0,
					"mode": 4,
					"material" : 0
				}
			]
		}
	],
	"accessors" : [
			{
				"bufferView": 3
				,"byteOffset" : 0
				,"componentType" : 5125
				,"count" : 41484
				,"type" : "SCALAR"
			},
			{
				"bufferView": 0
				,"byteOffset" : 0
				,"componentType" : 5126
				,"count" : 20656
				,"type" : "VEC3"
								,"min": [0.0696550533,0.0351155289,-3.46944695E-18]
								,"max": [1.03280962,0.998270154,0.00999999978]
			},
			{
				"bufferView": 1
				,"byteOffset" : 0
				,"componentType" : 5126
				,"count" : 20656
				,"type" : "VEC3"
			},
			{
				"bufferView": 2
				,"byteOffset" : 0
				,"componentType" : 5126
				,"count" : 20656
				,"type" : "VEC2"
			}
	],
	"materials": [
			{
				"name": "color",
				"emissiveFactor": [
					0, 0, 0
				]
				,"pbrMetallicRoughness": {
					"baseColorFactor": [
						0.2198628, 1, 0.2198628, 1
					]
					,"metallicFactor": 0.08575618
					,"roughnessFactor": 0.01336535
				}
				,"alphaMode": "OPAQUE"
				,"doubleSided": true
			}
	],
	"bufferViews" : [
			{
				"buffer": 0
				,"byteOffset" : 0
				,"byteLength" : 247872
				,"byteStride" : 12
				,"target" : 34962
			},
			{
				"buffer": 0
				,"byteOffset" : 247872
				,"byteLength" : 247872
				,"byteStride" : 12
				,"target" : 34962
			},
			{
				"buffer": 0
				,"byteOffset" : 495744
				,"byteLength" : 165248
				,"byteStride" : 8
				,"target" : 34962
			},
			{
				"buffer": 0
				,"byteOffset" : 660992
				,"byteLength" : 165936
				,"target" : 34963
			}
	],
	"buffers" : [
			{
				"byteLength": 826928
				,"uri" : "kfupm_logo_0001.bin"
			}
	]
}
